<mxfile host="app.diagrams.net" modified="2021-02-19T02:16:46.819Z" agent="5.0 (Windows NT 10.0; Win64; x64) AppleWebKit/537.36 (KHTML, like Gecko) Chrome/79.0.3945.88 Safari/537.36" etag="SWClsNIcsrO-1QfQC_Im" version="14.2.9" type="github" pages="2">
  <diagram name="多环境治理" id="e7e014a7-5840-1c2e-5031-d8a46d1fe8dd">
    <mxGraphModel dx="2062" dy="1154" grid="0" gridSize="10" guides="1" tooltips="1" connect="1" arrows="1" fold="1" page="1" pageScale="1" pageWidth="1169" pageHeight="826" background="#ffffff" math="0" shadow="0">
      <root>
        <mxCell id="0" />
        <mxCell id="1" parent="0" />
        <mxCell id="YI7DX0RRUqegkgnAGm2V-120" style="edgeStyle=none;rounded=0;orthogonalLoop=1;jettySize=auto;html=1;exitX=0.5;exitY=1;exitDx=0;exitDy=0;entryX=0.5;entryY=0;entryDx=0;entryDy=0;startArrow=none;startFill=0;endArrow=classic;endFill=1;" parent="1" source="YI7DX0RRUqegkgnAGm2V-42" target="YI7DX0RRUqegkgnAGm2V-52" edge="1">
          <mxGeometry relative="1" as="geometry" />
        </mxCell>
        <mxCell id="YI7DX0RRUqegkgnAGm2V-125" value="环境A" style="edgeLabel;html=1;align=center;verticalAlign=middle;resizable=0;points=[];fontSize=14;" parent="YI7DX0RRUqegkgnAGm2V-120" vertex="1" connectable="0">
          <mxGeometry x="0.1194" y="-7" relative="1" as="geometry">
            <mxPoint x="1" as="offset" />
          </mxGeometry>
        </mxCell>
        <mxCell id="YI7DX0RRUqegkgnAGm2V-121" style="edgeStyle=none;rounded=0;orthogonalLoop=1;jettySize=auto;html=1;exitX=0.5;exitY=1;exitDx=0;exitDy=0;entryX=0.5;entryY=0;entryDx=0;entryDy=0;startArrow=none;startFill=0;endArrow=classic;endFill=1;" parent="1" source="YI7DX0RRUqegkgnAGm2V-42" target="YI7DX0RRUqegkgnAGm2V-101" edge="1">
          <mxGeometry relative="1" as="geometry" />
        </mxCell>
        <mxCell id="YI7DX0RRUqegkgnAGm2V-127" value="环境B" style="edgeLabel;html=1;align=center;verticalAlign=middle;resizable=0;points=[];fontSize=14;" parent="YI7DX0RRUqegkgnAGm2V-121" vertex="1" connectable="0">
          <mxGeometry x="0.0587" y="6" relative="1" as="geometry">
            <mxPoint x="-1" as="offset" />
          </mxGeometry>
        </mxCell>
        <mxCell id="YI7DX0RRUqegkgnAGm2V-124" style="edgeStyle=none;rounded=0;orthogonalLoop=1;jettySize=auto;html=1;exitX=0.5;exitY=1;exitDx=0;exitDy=0;entryX=0.5;entryY=0;entryDx=0;entryDy=0;startArrow=none;startFill=0;endArrow=classic;endFill=1;" parent="1" source="YI7DX0RRUqegkgnAGm2V-42" target="YI7DX0RRUqegkgnAGm2V-79" edge="1">
          <mxGeometry relative="1" as="geometry" />
        </mxCell>
        <mxCell id="YI7DX0RRUqegkgnAGm2V-126" value="基准环境" style="edgeLabel;html=1;align=center;verticalAlign=middle;resizable=0;points=[];fontSize=14;" parent="YI7DX0RRUqegkgnAGm2V-124" vertex="1" connectable="0">
          <mxGeometry y="1" relative="1" as="geometry">
            <mxPoint as="offset" />
          </mxGeometry>
        </mxCell>
        <mxCell id="YI7DX0RRUqegkgnAGm2V-42" value="" style="rounded=0;whiteSpace=wrap;html=1;fillColor=#f5f5f5;strokeColor=#666666;fontColor=#333333;dashed=1;shadow=1;" parent="1" vertex="1">
          <mxGeometry x="425" y="20" width="395" height="130" as="geometry" />
        </mxCell>
        <mxCell id="YI7DX0RRUqegkgnAGm2V-48" style="edgeStyle=none;rounded=0;orthogonalLoop=1;jettySize=auto;html=1;exitX=1;exitY=0.5;exitDx=0;exitDy=0;entryX=0;entryY=0.5;entryDx=0;entryDy=0;shape=link;" parent="1" source="YI7DX0RRUqegkgnAGm2V-43" target="YI7DX0RRUqegkgnAGm2V-44" edge="1">
          <mxGeometry relative="1" as="geometry" />
        </mxCell>
        <mxCell id="YI7DX0RRUqegkgnAGm2V-43" value="&lt;font style=&quot;font-size: 14px&quot;&gt;API网关&lt;/font&gt;" style="rounded=1;whiteSpace=wrap;html=1;fillColor=#dae8fc;strokeColor=#6c8ebf;" parent="1" vertex="1">
          <mxGeometry x="470" y="50" width="120" height="60" as="geometry" />
        </mxCell>
        <mxCell id="YI7DX0RRUqegkgnAGm2V-44" value="&lt;font style=&quot;font-size: 14px&quot;&gt;sidecar&lt;/font&gt;" style="rounded=1;whiteSpace=wrap;html=1;fillColor=#fff2cc;strokeColor=#d6b656;" parent="1" vertex="1">
          <mxGeometry x="650" y="50" width="120" height="60" as="geometry" />
        </mxCell>
        <mxCell id="YI7DX0RRUqegkgnAGm2V-47" value="" style="rounded=0;whiteSpace=wrap;html=1;fillColor=#f5f5f5;strokeColor=#666666;fontColor=#333333;shadow=1;" parent="1" vertex="1">
          <mxGeometry x="157.5" y="240" width="310" height="500" as="geometry" />
        </mxCell>
        <mxCell id="YI7DX0RRUqegkgnAGm2V-52" value="&lt;font style=&quot;font-size: 14px&quot;&gt;环境A&lt;/font&gt;" style="text;html=1;strokeColor=none;fillColor=none;align=center;verticalAlign=middle;whiteSpace=wrap;rounded=0;dashed=1;" parent="1" vertex="1">
          <mxGeometry x="277.5" y="240" width="70" height="60" as="geometry" />
        </mxCell>
        <mxCell id="YI7DX0RRUqegkgnAGm2V-65" value="" style="group" parent="1" vertex="1" connectable="0">
          <mxGeometry x="167.5" y="320" width="290" height="60" as="geometry" />
        </mxCell>
        <mxCell id="YI7DX0RRUqegkgnAGm2V-49" value="&lt;font style=&quot;font-size: 14px&quot;&gt;服务A&lt;/font&gt;" style="rounded=1;whiteSpace=wrap;html=1;dashed=1;fillColor=#e1d5e7;strokeColor=#9673a6;" parent="YI7DX0RRUqegkgnAGm2V-65" vertex="1">
          <mxGeometry width="120" height="60" as="geometry" />
        </mxCell>
        <mxCell id="YI7DX0RRUqegkgnAGm2V-58" value="&lt;font style=&quot;font-size: 14px&quot;&gt;sidecar&lt;/font&gt;" style="rounded=1;whiteSpace=wrap;html=1;fillColor=#fff2cc;strokeColor=#d6b656;" parent="YI7DX0RRUqegkgnAGm2V-65" vertex="1">
          <mxGeometry x="170" width="120" height="60" as="geometry" />
        </mxCell>
        <mxCell id="YI7DX0RRUqegkgnAGm2V-59" style="edgeStyle=none;shape=link;rounded=0;orthogonalLoop=1;jettySize=auto;html=1;exitX=1;exitY=0.5;exitDx=0;exitDy=0;entryX=0;entryY=0.5;entryDx=0;entryDy=0;" parent="YI7DX0RRUqegkgnAGm2V-65" source="YI7DX0RRUqegkgnAGm2V-49" target="YI7DX0RRUqegkgnAGm2V-58" edge="1">
          <mxGeometry relative="1" as="geometry" />
        </mxCell>
        <mxCell id="YI7DX0RRUqegkgnAGm2V-70" value="" style="group" parent="1" vertex="1" connectable="0">
          <mxGeometry x="167.5" y="540" width="290" height="60" as="geometry" />
        </mxCell>
        <mxCell id="YI7DX0RRUqegkgnAGm2V-71" value="&lt;font style=&quot;font-size: 14px&quot;&gt;服务C&lt;/font&gt;" style="rounded=1;whiteSpace=wrap;html=1;dashed=1;fillColor=#e1d5e7;strokeColor=#9673a6;" parent="YI7DX0RRUqegkgnAGm2V-70" vertex="1">
          <mxGeometry width="120" height="60" as="geometry" />
        </mxCell>
        <mxCell id="YI7DX0RRUqegkgnAGm2V-72" value="&lt;font style=&quot;font-size: 14px&quot;&gt;sidecar&lt;/font&gt;" style="rounded=1;whiteSpace=wrap;html=1;fillColor=#fff2cc;strokeColor=#d6b656;" parent="YI7DX0RRUqegkgnAGm2V-70" vertex="1">
          <mxGeometry x="170" width="120" height="60" as="geometry" />
        </mxCell>
        <mxCell id="YI7DX0RRUqegkgnAGm2V-73" style="edgeStyle=none;shape=link;rounded=0;orthogonalLoop=1;jettySize=auto;html=1;exitX=1;exitY=0.5;exitDx=0;exitDy=0;entryX=0;entryY=0.5;entryDx=0;entryDy=0;" parent="YI7DX0RRUqegkgnAGm2V-70" source="YI7DX0RRUqegkgnAGm2V-71" target="YI7DX0RRUqegkgnAGm2V-72" edge="1">
          <mxGeometry relative="1" as="geometry" />
        </mxCell>
        <mxCell id="YI7DX0RRUqegkgnAGm2V-74" value="" style="group" parent="1" vertex="1" connectable="0">
          <mxGeometry x="167.5" y="650" width="290" height="60" as="geometry" />
        </mxCell>
        <mxCell id="YI7DX0RRUqegkgnAGm2V-75" value="&lt;font style=&quot;font-size: 14px&quot;&gt;服务D&lt;/font&gt;" style="rounded=1;whiteSpace=wrap;html=1;dashed=1;fillColor=#e1d5e7;strokeColor=#9673a6;" parent="YI7DX0RRUqegkgnAGm2V-74" vertex="1">
          <mxGeometry width="120" height="60" as="geometry" />
        </mxCell>
        <mxCell id="YI7DX0RRUqegkgnAGm2V-76" value="&lt;font style=&quot;font-size: 14px&quot;&gt;sidecar&lt;/font&gt;" style="rounded=1;whiteSpace=wrap;html=1;fillColor=#fff2cc;strokeColor=#d6b656;" parent="YI7DX0RRUqegkgnAGm2V-74" vertex="1">
          <mxGeometry x="170" width="120" height="60" as="geometry" />
        </mxCell>
        <mxCell id="YI7DX0RRUqegkgnAGm2V-77" style="edgeStyle=none;shape=link;rounded=0;orthogonalLoop=1;jettySize=auto;html=1;exitX=1;exitY=0.5;exitDx=0;exitDy=0;entryX=0;entryY=0.5;entryDx=0;entryDy=0;" parent="YI7DX0RRUqegkgnAGm2V-74" source="YI7DX0RRUqegkgnAGm2V-75" target="YI7DX0RRUqegkgnAGm2V-76" edge="1">
          <mxGeometry relative="1" as="geometry" />
        </mxCell>
        <mxCell id="YI7DX0RRUqegkgnAGm2V-78" value="" style="rounded=0;whiteSpace=wrap;html=1;fillColor=#f5f5f5;strokeColor=#666666;fontColor=#333333;shadow=1;" parent="1" vertex="1">
          <mxGeometry x="467.5" y="240" width="310" height="500" as="geometry" />
        </mxCell>
        <mxCell id="YI7DX0RRUqegkgnAGm2V-79" value="&lt;font style=&quot;font-size: 14px&quot;&gt;基准环境&lt;/font&gt;" style="text;html=1;strokeColor=none;fillColor=none;align=center;verticalAlign=middle;whiteSpace=wrap;rounded=0;dashed=1;" parent="1" vertex="1">
          <mxGeometry x="587.5" y="240" width="70" height="60" as="geometry" />
        </mxCell>
        <mxCell id="YI7DX0RRUqegkgnAGm2V-80" value="" style="group" parent="1" vertex="1" connectable="0">
          <mxGeometry x="477.5" y="320" width="290" height="60" as="geometry" />
        </mxCell>
        <mxCell id="YI7DX0RRUqegkgnAGm2V-81" value="&lt;font style=&quot;font-size: 14px&quot;&gt;服务A&lt;/font&gt;" style="rounded=1;whiteSpace=wrap;html=1;dashed=1;fillColor=#647687;strokeColor=#314354;fontColor=#ffffff;" parent="YI7DX0RRUqegkgnAGm2V-80" vertex="1">
          <mxGeometry width="120" height="60" as="geometry" />
        </mxCell>
        <mxCell id="YI7DX0RRUqegkgnAGm2V-82" value="&lt;font style=&quot;font-size: 14px&quot;&gt;sidecar&lt;/font&gt;" style="rounded=1;whiteSpace=wrap;html=1;fillColor=#fff2cc;strokeColor=#d6b656;" parent="YI7DX0RRUqegkgnAGm2V-80" vertex="1">
          <mxGeometry x="170" width="120" height="60" as="geometry" />
        </mxCell>
        <mxCell id="YI7DX0RRUqegkgnAGm2V-83" style="edgeStyle=none;shape=link;rounded=0;orthogonalLoop=1;jettySize=auto;html=1;exitX=1;exitY=0.5;exitDx=0;exitDy=0;entryX=0;entryY=0.5;entryDx=0;entryDy=0;" parent="YI7DX0RRUqegkgnAGm2V-80" source="YI7DX0RRUqegkgnAGm2V-81" target="YI7DX0RRUqegkgnAGm2V-82" edge="1">
          <mxGeometry relative="1" as="geometry" />
        </mxCell>
        <mxCell id="YI7DX0RRUqegkgnAGm2V-84" value="" style="group" parent="1" vertex="1" connectable="0">
          <mxGeometry x="477.5" y="430" width="290" height="60" as="geometry" />
        </mxCell>
        <mxCell id="YI7DX0RRUqegkgnAGm2V-85" value="&lt;font style=&quot;font-size: 14px&quot;&gt;服务B&lt;/font&gt;" style="rounded=1;whiteSpace=wrap;html=1;dashed=1;fillColor=#647687;strokeColor=#314354;fontColor=#ffffff;" parent="YI7DX0RRUqegkgnAGm2V-84" vertex="1">
          <mxGeometry width="120" height="60" as="geometry" />
        </mxCell>
        <mxCell id="YI7DX0RRUqegkgnAGm2V-86" value="&lt;font style=&quot;font-size: 14px&quot;&gt;sidecar&lt;/font&gt;" style="rounded=1;whiteSpace=wrap;html=1;fillColor=#fff2cc;strokeColor=#d6b656;" parent="YI7DX0RRUqegkgnAGm2V-84" vertex="1">
          <mxGeometry x="170" width="120" height="60" as="geometry" />
        </mxCell>
        <mxCell id="YI7DX0RRUqegkgnAGm2V-87" style="edgeStyle=none;shape=link;rounded=0;orthogonalLoop=1;jettySize=auto;html=1;exitX=1;exitY=0.5;exitDx=0;exitDy=0;entryX=0;entryY=0.5;entryDx=0;entryDy=0;" parent="YI7DX0RRUqegkgnAGm2V-84" source="YI7DX0RRUqegkgnAGm2V-85" target="YI7DX0RRUqegkgnAGm2V-86" edge="1">
          <mxGeometry relative="1" as="geometry" />
        </mxCell>
        <mxCell id="YI7DX0RRUqegkgnAGm2V-128" style="edgeStyle=none;rounded=0;orthogonalLoop=1;jettySize=auto;html=1;entryX=0.5;entryY=0;entryDx=0;entryDy=0;startArrow=none;startFill=0;endArrow=classic;endFill=1;fontSize=14;" parent="YI7DX0RRUqegkgnAGm2V-84" source="YI7DX0RRUqegkgnAGm2V-85" target="YI7DX0RRUqegkgnAGm2V-85" edge="1">
          <mxGeometry relative="1" as="geometry" />
        </mxCell>
        <mxCell id="YI7DX0RRUqegkgnAGm2V-88" value="" style="group" parent="1" vertex="1" connectable="0">
          <mxGeometry x="477.5" y="540" width="290" height="60" as="geometry" />
        </mxCell>
        <mxCell id="YI7DX0RRUqegkgnAGm2V-89" value="&lt;font style=&quot;font-size: 14px&quot;&gt;服务C&lt;/font&gt;" style="rounded=1;whiteSpace=wrap;html=1;dashed=1;fillColor=#647687;strokeColor=#314354;fontColor=#ffffff;" parent="YI7DX0RRUqegkgnAGm2V-88" vertex="1">
          <mxGeometry width="120" height="60" as="geometry" />
        </mxCell>
        <mxCell id="YI7DX0RRUqegkgnAGm2V-90" value="&lt;font style=&quot;font-size: 14px&quot;&gt;sidecar&lt;/font&gt;" style="rounded=1;whiteSpace=wrap;html=1;fillColor=#fff2cc;strokeColor=#d6b656;" parent="YI7DX0RRUqegkgnAGm2V-88" vertex="1">
          <mxGeometry x="170" width="120" height="60" as="geometry" />
        </mxCell>
        <mxCell id="YI7DX0RRUqegkgnAGm2V-91" style="edgeStyle=none;shape=link;rounded=0;orthogonalLoop=1;jettySize=auto;html=1;exitX=1;exitY=0.5;exitDx=0;exitDy=0;entryX=0;entryY=0.5;entryDx=0;entryDy=0;" parent="YI7DX0RRUqegkgnAGm2V-88" source="YI7DX0RRUqegkgnAGm2V-89" target="YI7DX0RRUqegkgnAGm2V-90" edge="1">
          <mxGeometry relative="1" as="geometry" />
        </mxCell>
        <mxCell id="YI7DX0RRUqegkgnAGm2V-92" value="" style="group;strokeWidth=1;" parent="1" vertex="1" connectable="0">
          <mxGeometry x="477.5" y="650" width="290" height="60" as="geometry" />
        </mxCell>
        <mxCell id="YI7DX0RRUqegkgnAGm2V-93" value="&lt;font style=&quot;font-size: 14px&quot;&gt;服务D&lt;/font&gt;" style="rounded=1;whiteSpace=wrap;html=1;dashed=1;fillColor=#647687;strokeColor=#314354;fontColor=#ffffff;" parent="YI7DX0RRUqegkgnAGm2V-92" vertex="1">
          <mxGeometry width="120" height="60" as="geometry" />
        </mxCell>
        <mxCell id="YI7DX0RRUqegkgnAGm2V-94" value="&lt;font style=&quot;font-size: 14px&quot;&gt;sidecar&lt;/font&gt;" style="rounded=1;whiteSpace=wrap;html=1;fillColor=#fff2cc;strokeColor=#d6b656;" parent="YI7DX0RRUqegkgnAGm2V-92" vertex="1">
          <mxGeometry x="170" width="120" height="60" as="geometry" />
        </mxCell>
        <mxCell id="YI7DX0RRUqegkgnAGm2V-95" style="edgeStyle=none;shape=link;rounded=0;orthogonalLoop=1;jettySize=auto;html=1;exitX=1;exitY=0.5;exitDx=0;exitDy=0;entryX=0;entryY=0.5;entryDx=0;entryDy=0;" parent="YI7DX0RRUqegkgnAGm2V-92" source="YI7DX0RRUqegkgnAGm2V-93" target="YI7DX0RRUqegkgnAGm2V-94" edge="1">
          <mxGeometry relative="1" as="geometry" />
        </mxCell>
        <mxCell id="YI7DX0RRUqegkgnAGm2V-96" style="edgeStyle=none;rounded=0;orthogonalLoop=1;jettySize=auto;html=1;exitX=0.5;exitY=1;exitDx=0;exitDy=0;entryX=0;entryY=0.5;entryDx=0;entryDy=0;endArrow=classic;endFill=1;" parent="1" source="YI7DX0RRUqegkgnAGm2V-49" target="YI7DX0RRUqegkgnAGm2V-85" edge="1">
          <mxGeometry relative="1" as="geometry" />
        </mxCell>
        <mxCell id="YI7DX0RRUqegkgnAGm2V-98" style="edgeStyle=none;rounded=0;orthogonalLoop=1;jettySize=auto;html=1;exitX=0;exitY=0.5;exitDx=0;exitDy=0;entryX=0.5;entryY=0;entryDx=0;entryDy=0;startArrow=none;startFill=0;endArrow=classic;endFill=1;" parent="1" source="YI7DX0RRUqegkgnAGm2V-85" target="YI7DX0RRUqegkgnAGm2V-71" edge="1">
          <mxGeometry relative="1" as="geometry" />
        </mxCell>
        <mxCell id="YI7DX0RRUqegkgnAGm2V-99" style="edgeStyle=none;rounded=0;orthogonalLoop=1;jettySize=auto;html=1;exitX=0.5;exitY=1;exitDx=0;exitDy=0;startArrow=none;startFill=0;endArrow=classic;endFill=1;" parent="1" source="YI7DX0RRUqegkgnAGm2V-71" target="YI7DX0RRUqegkgnAGm2V-75" edge="1">
          <mxGeometry relative="1" as="geometry" />
        </mxCell>
        <mxCell id="YI7DX0RRUqegkgnAGm2V-100" value="" style="rounded=0;whiteSpace=wrap;html=1;fillColor=#f5f5f5;strokeColor=#666666;fontColor=#333333;shadow=1;" parent="1" vertex="1">
          <mxGeometry x="777.5" y="240" width="310" height="500" as="geometry" />
        </mxCell>
        <mxCell id="YI7DX0RRUqegkgnAGm2V-101" value="&lt;font style=&quot;font-size: 14px&quot;&gt;环境B&lt;/font&gt;" style="text;html=1;strokeColor=none;fillColor=none;align=center;verticalAlign=middle;whiteSpace=wrap;rounded=0;dashed=1;" parent="1" vertex="1">
          <mxGeometry x="897.5" y="240" width="70" height="60" as="geometry" />
        </mxCell>
        <mxCell id="YI7DX0RRUqegkgnAGm2V-102" value="" style="group" parent="1" vertex="1" connectable="0">
          <mxGeometry x="787.5" y="320" width="290" height="60" as="geometry" />
        </mxCell>
        <mxCell id="YI7DX0RRUqegkgnAGm2V-103" value="&lt;font style=&quot;font-size: 14px&quot;&gt;服务A&lt;/font&gt;" style="rounded=1;whiteSpace=wrap;html=1;dashed=1;fillColor=#1ba1e2;strokeColor=#006EAF;fontColor=#ffffff;" parent="YI7DX0RRUqegkgnAGm2V-102" vertex="1">
          <mxGeometry width="120" height="60" as="geometry" />
        </mxCell>
        <mxCell id="YI7DX0RRUqegkgnAGm2V-104" value="&lt;font style=&quot;font-size: 14px&quot;&gt;sidecar&lt;/font&gt;" style="rounded=1;whiteSpace=wrap;html=1;fillColor=#fff2cc;strokeColor=#d6b656;" parent="YI7DX0RRUqegkgnAGm2V-102" vertex="1">
          <mxGeometry x="170" width="120" height="60" as="geometry" />
        </mxCell>
        <mxCell id="YI7DX0RRUqegkgnAGm2V-105" style="edgeStyle=none;shape=link;rounded=0;orthogonalLoop=1;jettySize=auto;html=1;exitX=1;exitY=0.5;exitDx=0;exitDy=0;entryX=0;entryY=0.5;entryDx=0;entryDy=0;" parent="YI7DX0RRUqegkgnAGm2V-102" source="YI7DX0RRUqegkgnAGm2V-103" target="YI7DX0RRUqegkgnAGm2V-104" edge="1">
          <mxGeometry relative="1" as="geometry" />
        </mxCell>
        <mxCell id="YI7DX0RRUqegkgnAGm2V-106" value="" style="group" parent="1" vertex="1" connectable="0">
          <mxGeometry x="787.5" y="430" width="290" height="60" as="geometry" />
        </mxCell>
        <mxCell id="YI7DX0RRUqegkgnAGm2V-107" value="&lt;font style=&quot;font-size: 14px&quot;&gt;服务B&lt;/font&gt;" style="rounded=1;whiteSpace=wrap;html=1;dashed=1;fillColor=#1ba1e2;strokeColor=#006EAF;fontColor=#ffffff;" parent="YI7DX0RRUqegkgnAGm2V-106" vertex="1">
          <mxGeometry width="120" height="60" as="geometry" />
        </mxCell>
        <mxCell id="YI7DX0RRUqegkgnAGm2V-108" value="&lt;font style=&quot;font-size: 14px&quot;&gt;sidecar&lt;/font&gt;" style="rounded=1;whiteSpace=wrap;html=1;fillColor=#fff2cc;strokeColor=#d6b656;" parent="YI7DX0RRUqegkgnAGm2V-106" vertex="1">
          <mxGeometry x="170" width="120" height="60" as="geometry" />
        </mxCell>
        <mxCell id="YI7DX0RRUqegkgnAGm2V-109" style="edgeStyle=none;shape=link;rounded=0;orthogonalLoop=1;jettySize=auto;html=1;exitX=1;exitY=0.5;exitDx=0;exitDy=0;entryX=0;entryY=0.5;entryDx=0;entryDy=0;" parent="YI7DX0RRUqegkgnAGm2V-106" source="YI7DX0RRUqegkgnAGm2V-107" target="YI7DX0RRUqegkgnAGm2V-108" edge="1">
          <mxGeometry relative="1" as="geometry" />
        </mxCell>
        <mxCell id="YI7DX0RRUqegkgnAGm2V-114" value="" style="group" parent="1" vertex="1" connectable="0">
          <mxGeometry x="787.5" y="650" width="290" height="60" as="geometry" />
        </mxCell>
        <mxCell id="YI7DX0RRUqegkgnAGm2V-115" value="&lt;font style=&quot;font-size: 14px&quot;&gt;服务D&lt;/font&gt;" style="rounded=1;whiteSpace=wrap;html=1;dashed=1;fillColor=#1ba1e2;strokeColor=#006EAF;fontColor=#ffffff;" parent="YI7DX0RRUqegkgnAGm2V-114" vertex="1">
          <mxGeometry width="120" height="60" as="geometry" />
        </mxCell>
        <mxCell id="YI7DX0RRUqegkgnAGm2V-116" value="&lt;font style=&quot;font-size: 14px&quot;&gt;sidecar&lt;/font&gt;" style="rounded=1;whiteSpace=wrap;html=1;fillColor=#fff2cc;strokeColor=#d6b656;" parent="YI7DX0RRUqegkgnAGm2V-114" vertex="1">
          <mxGeometry x="170" width="120" height="60" as="geometry" />
        </mxCell>
        <mxCell id="YI7DX0RRUqegkgnAGm2V-117" style="edgeStyle=none;shape=link;rounded=0;orthogonalLoop=1;jettySize=auto;html=1;exitX=1;exitY=0.5;exitDx=0;exitDy=0;entryX=0;entryY=0.5;entryDx=0;entryDy=0;" parent="YI7DX0RRUqegkgnAGm2V-114" source="YI7DX0RRUqegkgnAGm2V-115" target="YI7DX0RRUqegkgnAGm2V-116" edge="1">
          <mxGeometry relative="1" as="geometry" />
        </mxCell>
        <mxCell id="YI7DX0RRUqegkgnAGm2V-118" style="edgeStyle=none;rounded=0;orthogonalLoop=1;jettySize=auto;html=1;exitX=0.5;exitY=1;exitDx=0;exitDy=0;entryX=0.597;entryY=-0.028;entryDx=0;entryDy=0;entryPerimeter=0;startArrow=none;startFill=0;endArrow=classic;endFill=1;" parent="1" source="YI7DX0RRUqegkgnAGm2V-107" target="YI7DX0RRUqegkgnAGm2V-89" edge="1">
          <mxGeometry relative="1" as="geometry" />
        </mxCell>
        <mxCell id="YI7DX0RRUqegkgnAGm2V-119" style="edgeStyle=none;rounded=0;orthogonalLoop=1;jettySize=auto;html=1;exitX=0.5;exitY=1;exitDx=0;exitDy=0;startArrow=none;startFill=0;endArrow=classic;endFill=1;" parent="1" source="YI7DX0RRUqegkgnAGm2V-103" target="YI7DX0RRUqegkgnAGm2V-107" edge="1">
          <mxGeometry relative="1" as="geometry" />
        </mxCell>
        <mxCell id="YI7DX0RRUqegkgnAGm2V-123" style="edgeStyle=none;rounded=0;orthogonalLoop=1;jettySize=auto;html=1;entryX=0.5;entryY=0;entryDx=0;entryDy=0;startArrow=none;startFill=0;endArrow=classic;endFill=1;" parent="1" source="YI7DX0RRUqegkgnAGm2V-79" target="YI7DX0RRUqegkgnAGm2V-79" edge="1">
          <mxGeometry relative="1" as="geometry" />
        </mxCell>
        <mxCell id="oNZHboc8EKATGhbce3m1-6" value="&lt;font style=&quot;font-size: 15px&quot;&gt;环境名称&lt;/font&gt;" style="edgeStyle=orthogonalEdgeStyle;rounded=0;orthogonalLoop=1;jettySize=auto;html=1;exitX=1;exitY=0.5;exitDx=0;exitDy=0;entryX=0;entryY=0.5;entryDx=0;entryDy=0;" edge="1" parent="1" source="oNZHboc8EKATGhbce3m1-2" target="YI7DX0RRUqegkgnAGm2V-42">
          <mxGeometry relative="1" as="geometry" />
        </mxCell>
        <mxCell id="oNZHboc8EKATGhbce3m1-2" value="" style="rounded=0;whiteSpace=wrap;html=1;fillColor=#f5f5f5;strokeColor=#666666;fontColor=#333333;shadow=0;dashed=1;" vertex="1" parent="1">
          <mxGeometry x="157.5" y="15" width="160" height="140" as="geometry" />
        </mxCell>
        <mxCell id="oNZHboc8EKATGhbce3m1-4" style="edgeStyle=orthogonalEdgeStyle;rounded=0;orthogonalLoop=1;jettySize=auto;html=1;exitX=0.5;exitY=0.5;exitDx=0;exitDy=0;exitPerimeter=0;" edge="1" parent="1" source="oNZHboc8EKATGhbce3m1-3" target="oNZHboc8EKATGhbce3m1-2">
          <mxGeometry relative="1" as="geometry" />
        </mxCell>
        <mxCell id="oNZHboc8EKATGhbce3m1-3" value="&lt;font style=&quot;font-size: 14px&quot;&gt;客户端选择&lt;/font&gt;" style="shape=umlActor;verticalLabelPosition=bottom;verticalAlign=top;html=1;outlineConnect=0;fillColor=#dae8fc;strokeColor=#6c8ebf;" vertex="1" parent="1">
          <mxGeometry x="70" y="55" width="30" height="60" as="geometry" />
        </mxCell>
        <mxCell id="oNZHboc8EKATGhbce3m1-7" value="&lt;font style=&quot;font-size: 14px&quot;&gt;基准环境&lt;/font&gt;" style="rounded=1;whiteSpace=wrap;html=1;fillColor=#ffff88;strokeColor=#36393d;" vertex="1" parent="1">
          <mxGeometry x="177.5" y="20" width="120" height="40" as="geometry" />
        </mxCell>
        <mxCell id="oNZHboc8EKATGhbce3m1-8" value="&lt;font style=&quot;font-size: 14px&quot;&gt;环境A&lt;/font&gt;" style="rounded=1;whiteSpace=wrap;html=1;fillColor=#ffff88;strokeColor=#36393d;" vertex="1" parent="1">
          <mxGeometry x="177.5" y="65" width="120" height="40" as="geometry" />
        </mxCell>
        <mxCell id="oNZHboc8EKATGhbce3m1-9" value="&lt;font style=&quot;font-size: 14px&quot;&gt;环境B&amp;nbsp;&lt;/font&gt;" style="rounded=1;whiteSpace=wrap;html=1;fillColor=#ffff88;strokeColor=#36393d;" vertex="1" parent="1">
          <mxGeometry x="177.5" y="110" width="120" height="40" as="geometry" />
        </mxCell>
        <mxCell id="oNZHboc8EKATGhbce3m1-10" value="&lt;font style=&quot;font-size: 14px&quot;&gt;治理平台给&lt;br&gt;sidecar下发&lt;br&gt;环境路由信息&lt;/font&gt;" style="shape=document;whiteSpace=wrap;html=1;boundedLbl=1;rounded=0;shadow=0;dashed=1;fillColor=#ffff88;strokeColor=#36393d;" vertex="1" parent="1">
          <mxGeometry x="940" y="40" width="120" height="80" as="geometry" />
        </mxCell>
      </root>
    </mxGraphModel>
  </diagram>
  <diagram id="ZJrVcepZtGDsFnRzniv1" name="混沌工程">
    <mxGraphModel dx="2062" dy="1154" grid="0" gridSize="10" guides="1" tooltips="1" connect="1" arrows="1" fold="1" page="1" pageScale="1" pageWidth="827" pageHeight="1169" math="0" shadow="0">
      <root>
        <mxCell id="YWtwVkRxXw-FEZAJ9l7L-0" />
        <mxCell id="YWtwVkRxXw-FEZAJ9l7L-1" parent="YWtwVkRxXw-FEZAJ9l7L-0" />
        <mxCell id="0mI7vz2HMQiBsFY-xA1f-13" style="edgeStyle=none;rounded=0;orthogonalLoop=1;jettySize=auto;html=1;exitX=0.5;exitY=1;exitDx=0;exitDy=0;entryX=0.5;entryY=0;entryDx=0;entryDy=0;" edge="1" parent="YWtwVkRxXw-FEZAJ9l7L-1" source="0mI7vz2HMQiBsFY-xA1f-2" target="0mI7vz2HMQiBsFY-xA1f-6">
          <mxGeometry relative="1" as="geometry" />
        </mxCell>
        <mxCell id="0mI7vz2HMQiBsFY-xA1f-14" style="edgeStyle=none;rounded=0;orthogonalLoop=1;jettySize=auto;html=1;exitX=0.5;exitY=1;exitDx=0;exitDy=0;entryX=0.5;entryY=0;entryDx=0;entryDy=0;" edge="1" parent="YWtwVkRxXw-FEZAJ9l7L-1" source="0mI7vz2HMQiBsFY-xA1f-2" target="0mI7vz2HMQiBsFY-xA1f-7">
          <mxGeometry relative="1" as="geometry" />
        </mxCell>
        <mxCell id="0mI7vz2HMQiBsFY-xA1f-2" value="" style="rounded=0;whiteSpace=wrap;html=1;shadow=0;dashed=1;fillColor=#f5f5f5;strokeColor=#666666;fontColor=#333333;" vertex="1" parent="YWtwVkRxXw-FEZAJ9l7L-1">
          <mxGeometry x="260" y="220" width="276" height="100" as="geometry" />
        </mxCell>
        <mxCell id="0mI7vz2HMQiBsFY-xA1f-1" value="" style="rounded=0;whiteSpace=wrap;html=1;shadow=0;dashed=1;fillColor=#f5f5f5;strokeColor=#666666;fontColor=#333333;" vertex="1" parent="YWtwVkRxXw-FEZAJ9l7L-1">
          <mxGeometry x="260" y="50" width="276" height="100" as="geometry" />
        </mxCell>
        <mxCell id="hWCapUhrIWwqcXjwzPP1-0" value="&lt;font style=&quot;font-size: 14px&quot;&gt;sidecar&lt;/font&gt;" style="rounded=1;whiteSpace=wrap;html=1;fillColor=#fff2cc;strokeColor=#d6b656;" parent="YWtwVkRxXw-FEZAJ9l7L-1" vertex="1">
          <mxGeometry x="338" y="240" width="120" height="60" as="geometry" />
        </mxCell>
        <mxCell id="0mI7vz2HMQiBsFY-xA1f-4" style="edgeStyle=orthogonalEdgeStyle;rounded=0;orthogonalLoop=1;jettySize=auto;html=1;exitX=0.5;exitY=1;exitDx=0;exitDy=0;entryX=0.5;entryY=0;entryDx=0;entryDy=0;" edge="1" parent="YWtwVkRxXw-FEZAJ9l7L-1" source="IuK1wNM2U7IIgitgCwAa-0" target="hWCapUhrIWwqcXjwzPP1-0">
          <mxGeometry relative="1" as="geometry" />
        </mxCell>
        <mxCell id="0mI7vz2HMQiBsFY-xA1f-5" value="MOCK规则" style="edgeLabel;html=1;align=center;verticalAlign=middle;resizable=0;points=[];" vertex="1" connectable="0" parent="0mI7vz2HMQiBsFY-xA1f-4">
          <mxGeometry x="-0.2" y="1" relative="1" as="geometry">
            <mxPoint as="offset" />
          </mxGeometry>
        </mxCell>
        <mxCell id="IuK1wNM2U7IIgitgCwAa-0" value="服务治理平台" style="rounded=1;whiteSpace=wrap;html=1;shadow=1;strokeWidth=1;fillColor=#b1ddf0;fontSize=14;strokeColor=#10739e;" parent="YWtwVkRxXw-FEZAJ9l7L-1" vertex="1">
          <mxGeometry x="338" y="70" width="120" height="60" as="geometry" />
        </mxCell>
        <mxCell id="0mI7vz2HMQiBsFY-xA1f-6" value="" style="rounded=0;whiteSpace=wrap;html=1;shadow=0;dashed=1;fillColor=#f5f5f5;strokeColor=#666666;fontColor=#333333;" vertex="1" parent="YWtwVkRxXw-FEZAJ9l7L-1">
          <mxGeometry x="100" y="400" width="276" height="100" as="geometry" />
        </mxCell>
        <mxCell id="0mI7vz2HMQiBsFY-xA1f-7" value="" style="rounded=0;whiteSpace=wrap;html=1;shadow=0;dashed=1;fillColor=#f5f5f5;strokeColor=#666666;fontColor=#333333;" vertex="1" parent="YWtwVkRxXw-FEZAJ9l7L-1">
          <mxGeometry x="414" y="400" width="276" height="100" as="geometry" />
        </mxCell>
        <mxCell id="0mI7vz2HMQiBsFY-xA1f-8" value="&lt;font style=&quot;font-size: 14px&quot;&gt;业务服务&lt;/font&gt;" style="rounded=1;whiteSpace=wrap;html=1;shadow=0;dashed=1;fillColor=#ffff88;strokeColor=#36393d;" vertex="1" parent="YWtwVkRxXw-FEZAJ9l7L-1">
          <mxGeometry x="110" y="420" width="120" height="60" as="geometry" />
        </mxCell>
        <mxCell id="0mI7vz2HMQiBsFY-xA1f-9" value="&lt;font style=&quot;font-size: 14px&quot;&gt;业务服务&lt;/font&gt;" style="rounded=1;whiteSpace=wrap;html=1;shadow=0;dashed=1;fillColor=#ffff88;strokeColor=#36393d;" vertex="1" parent="YWtwVkRxXw-FEZAJ9l7L-1">
          <mxGeometry x="250" y="420" width="120" height="60" as="geometry" />
        </mxCell>
        <mxCell id="0mI7vz2HMQiBsFY-xA1f-10" value="&lt;font style=&quot;font-size: 14px&quot;&gt;MOCK服务&lt;/font&gt;" style="rounded=1;whiteSpace=wrap;html=1;shadow=0;dashed=1;fillColor=#ffcccc;strokeColor=#36393d;" vertex="1" parent="YWtwVkRxXw-FEZAJ9l7L-1">
          <mxGeometry x="420" y="420" width="120" height="60" as="geometry" />
        </mxCell>
        <mxCell id="0mI7vz2HMQiBsFY-xA1f-11" value="&lt;font style=&quot;font-size: 14px&quot;&gt;MOCK服务&lt;/font&gt;" style="rounded=1;whiteSpace=wrap;html=1;shadow=0;dashed=1;fillColor=#ffcccc;strokeColor=#36393d;" vertex="1" parent="YWtwVkRxXw-FEZAJ9l7L-1">
          <mxGeometry x="560" y="420" width="120" height="60" as="geometry" />
        </mxCell>
      </root>
    </mxGraphModel>
  </diagram>
</mxfile>
